<svg width="296" height="296" viewBox="0 0 296 296" fill="none" xmlns="http://www.w3.org/2000/svg">
<circle cx="148" cy="148" r="148" fill="white"/>
<path d="M73.2734 77.5297C64.0371 87.0848 53.275 100.976 48.3757 109.888C45.5646 114.947 41.7898 122.655 41.7898 123.378C41.7898 123.859 41.3079 125.224 40.6654 126.509C37.6938 132.371 36.5693 138.312 36.5693 149.313C36.5693 159.992 37.2119 163.364 40.2638 168.503C40.6654 169.145 41.4686 170.751 42.1111 172.116C43.7174 175.649 48.5363 180.868 53.9978 185.124C59.1379 188.978 71.7473 195.723 74.0765 195.803C74.7993 195.803 75.6829 196.124 75.9238 196.606C78.012 199.978 64.5994 206.964 54.319 207.767C48.0544 208.329 46.3678 209.854 51.1064 210.738C54.7206 211.38 67.3301 210.577 70.1411 209.533C72.149 208.73 72.2293 208.811 71.3459 210.657C70.8639 211.701 69.9002 212.745 69.1774 212.986C68.4545 213.227 66.3663 214.351 64.519 215.395C62.6719 216.439 59.8607 217.563 58.2544 217.804C55.6041 218.285 53.837 220.132 54.8813 221.176C55.4435 221.818 65.001 219.891 68.2938 218.526C74.4781 215.877 78.1727 213.709 82.5097 210.256C84.9994 208.249 87.4891 206.322 88.0514 205.84C88.7742 205.278 89.8987 205.519 91.5049 206.482C94.8781 208.489 99.6168 208.168 108.13 205.358C114.073 203.431 115.921 203.11 117.206 203.832C120.017 205.278 121.543 208.409 121.061 211.541C120.338 215.636 122.266 217.161 128.932 217.884C142.023 219.249 149.412 216.76 159.371 207.606C161.941 205.278 164.752 204.796 166.038 206.402C167.082 207.847 169.491 214.431 169.491 216.037C169.491 218.366 172.704 224.468 175.274 227.037C177.683 229.366 178.165 229.526 184.269 229.526C203.785 229.526 227.56 215.314 242.016 194.92C245.469 190.022 252.859 175.328 253.822 171.474C254.224 170.029 254.865 167.78 255.267 166.496C257.436 160.152 258.561 154.773 258.802 149.232C259.042 143.772 258.882 143.21 257.436 142.969C256.553 142.809 254.705 142.167 253.259 141.524C251.895 140.882 250.047 140.4 249.164 140.4C248.199 140.4 247.237 139.999 246.914 139.517C246.674 139.035 245.308 138.072 243.862 137.429L241.373 136.305L244.585 136.787C246.353 137.028 250.449 137.429 253.742 137.75L259.685 138.232L259.123 128.757C258.4 117.516 256.874 113.582 252.216 110.852C249.485 109.326 248.12 109.166 239.125 109.246C229.326 109.406 225.873 108.764 220.892 105.793C220.25 105.392 219.126 104.83 218.484 104.509C217.84 104.187 213.826 101.377 209.649 98.2456C199.85 90.9388 198.726 90.2965 194.148 89.0118C189.65 87.8074 182.582 88.6103 174.712 91.2601C171.981 92.2235 164.511 93.7492 158.648 94.552C154.793 95.1141 152.946 95.596 142.987 98.4062C134.715 100.654 128.771 104.187 123.631 109.728C121.061 112.618 118.892 115.348 118.892 115.83C118.892 116.312 116.724 119.202 114.074 122.334C111.423 125.385 109.255 128.195 109.255 128.436C109.255 128.677 107.648 131.407 105.64 134.458C103.633 137.429 102.026 140.24 102.026 140.561C102.026 141.604 95.2797 150.999 92.3082 154.13C87.5695 159.189 85.8026 159.912 78.9757 159.831C71.2655 159.671 67.3301 157.663 63.9568 152.123C58.6561 143.612 59.9411 125.867 67.1695 109.487C68.856 105.633 73.9159 95.1945 74.9601 93.428C77.53 89.1724 85.4812 79.2159 87.2483 78.0918C89.8183 76.4056 89.6577 74.88 86.9269 73.4347C85.6419 72.7924 84.1962 71.6683 83.6341 71.0259C82.9915 70.3033 82.1884 69.7412 81.7065 69.7412C81.2246 69.7412 77.3694 73.2741 73.2734 77.5297ZM133.269 131.487C134.233 132.13 133.992 132.371 132.385 132.772C129.655 133.495 127.486 132.371 129.815 131.487C131.823 130.684 131.984 130.684 133.269 131.487ZM135.357 136.305C136.08 137.509 134.393 138.072 132.144 137.509C130.538 137.108 130.297 136.787 131.1 136.305C132.466 135.342 134.715 135.422 135.357 136.305ZM134.152 142.167C138.248 144.254 138.971 146.021 136.722 148.269C133.992 150.999 129.896 152.043 126.281 150.999C119.856 149.072 118.892 144.897 124.354 142.006C128.209 139.999 129.815 139.999 134.152 142.167ZM104.275 153.167C104.596 156.539 103.151 156.298 101.625 152.765C99.938 148.751 100.099 148.028 102.267 149.393C103.311 150.116 104.114 151.641 104.275 153.167ZM252.457 154.291C255.428 155.576 255.509 155.656 254.224 157.583C253.019 159.349 252.697 159.43 250.77 158.466C247.076 156.7 240.49 154.853 237.919 154.853C235.43 154.853 234.145 153.97 235.188 152.846C236.153 151.882 249.245 152.926 252.457 154.291ZM98.1711 156.218C99.6971 157.583 100.179 161.276 98.8137 161.276C98.3317 161.276 97.6089 160.393 97.2073 159.269C96.8058 158.145 96.083 157.262 95.601 157.262C95.1995 157.262 94.7979 156.7 94.7979 156.057C94.7979 154.452 96.3238 154.532 98.1711 156.218ZM92.3884 162.963C92.3884 164.569 92.0672 165.291 91.4246 165.131C90.2199 164.729 89.6577 162.481 90.3003 160.795C91.0231 158.868 92.3884 160.313 92.3884 162.963ZM80.1805 164.087C80.0199 165.211 79.6183 166.174 79.1363 166.174C78.7349 166.174 78.2529 165.211 78.0923 164.087C77.9317 162.642 78.1727 162.079 79.1363 162.079C80.1002 162.079 80.3412 162.642 80.1805 164.087ZM86.6057 163.846C86.0435 165.371 83.5537 165.612 83.5537 164.167C83.5537 163.364 84.2766 162.882 85.2404 162.882C86.2041 162.882 86.7663 163.284 86.6057 163.846ZM233.422 170.51C234.226 171.153 235.832 171.715 236.876 171.715C239.365 171.715 245.148 174.445 246.914 176.452C248.12 177.737 248.12 177.978 246.754 179.182C245.389 180.467 245.068 180.306 241.052 177.335C238.723 175.569 236.153 174.124 235.269 174.124C234.466 174.124 233.503 173.642 233.18 172.999C232.859 172.357 231.816 171.795 231.012 171.634C230.129 171.474 229.326 170.831 229.085 170.269C228.683 168.904 231.495 169.065 233.422 170.51ZM217.359 187.372C217.68 188.095 218.886 188.577 220.169 188.577C221.455 188.577 222.5 188.898 222.5 189.299C222.5 189.701 223.302 190.343 224.346 190.584C226.837 191.387 230.932 194.599 232.94 197.329L234.626 199.737L232.859 200.701C231.253 201.504 230.851 201.343 229.406 199.336C228.522 198.051 226.837 196.365 225.792 195.401C224.748 194.518 223.142 193.153 222.338 192.35C221.536 191.628 220.571 190.985 220.169 190.985C219.286 190.985 215.271 187.452 215.271 186.649C215.271 185.686 216.957 186.168 217.359 187.372ZM178.647 194.358C178.888 195.401 179.129 197.65 179.129 199.416C179.129 201.183 179.53 204.073 180.012 205.84C180.494 207.606 181.137 210.336 181.458 211.862C181.779 213.387 182.422 215.395 182.904 216.278C186.839 223.906 187 225.512 183.948 225.512C180.976 225.512 177.201 215.636 176.318 205.278C175.515 196.847 177.201 189.058 178.647 194.358ZM200.573 200.299C201.136 201.825 208.685 209.373 212.701 212.424C214.066 213.548 215.271 215.154 215.271 215.957C215.271 218.366 211.576 217.884 209.166 215.234C204.829 210.416 198.405 201.504 198.405 200.299C198.405 198.613 199.93 198.613 200.573 200.299Z" fill="black"/>
</svg>
